# xmcd
#
# Track frame offsets:
#	182
#	10852
#	22070
#	30697
#	47912
#	59137
#	71770
#	81167
#	93950
#	105882
#	117180
#	126530
#	139790
#	147562
#	158092
#
# Disc length: 2239 seconds
#
# Revision: 1
# Processed by: cddbd v1.5.2PL0 Copyright (c) Steve Scherf et al.
# Submitted via: audiograbber 1.83.01
#
DISCID=d608bd0f
DTITLE=AA.VV. - 031 - Canti degli alpini
DYEAR=1994
DGENRE=Folklore
TTITLE0=Coro Monterosa - Monte Canino
TTITLE1=Coro Stella alpina di Verona - Sul cappello
TTITLE2=Coro Stella alpina di Verona - Sul ponte di Bassano
TTITLE3=Coro Stella alpina di Verona - Ta Pum
TTITLE4=Coro Stella alpina di Verona - Bersaglier ha cento penne
TTITLE5=Coro Grigna - Dove sei stato mio bell'alpino?
TTITLE6=Coro Grigna - E Cadorna manda a dire
TTITLE7=Coro Grigna - Monte Cauriol
TTITLE8=Coro Grigna - Monte Nero
TTITLE9=Coro Grigna - E c'erano tre alpin
TTITLE10=Coro Grigna - Trentatrè (Valore alpino)
TTITLE11=Coro Grigna - O barcarol del Brenta
TTITLE12=Coro Grigna - Motorizzati a pie'
TTITLE13=Canti della Patria - Monte Grappa
TTITLE14=Canti della Patria - O Dio del cielo
EXTD=
EXTT0=
EXTT1=
EXTT2=
EXTT3=
EXTT4=
EXTT5=
EXTT6=
EXTT7=
EXTT8=
EXTT9=
EXTT10=
EXTT11=
EXTT12=
EXTT13=
EXTT14=
PLAYORDER=
